<svg width="411" height="86" xmlns="http://www.w3.org/2000/svg" xmlns:xlink="http://www.w3.org/1999/xlink" overflow="hidden"><g transform="translate(-156 -226)"><path d="M157 241.667C157 234.119 163.119 228 170.667 228L284.333 228C291.881 228 298 234.119 298 241.667L298 296.333C298 303.881 291.881 310 284.333 310L170.667 310C163.119 310 157 303.881 157 296.333Z" stroke="#000000" stroke-width="2" stroke-miterlimit="8" fill="none" fill-rule="evenodd"/><text font-family="Calibri,Calibri_MSFontService,sans-serif" font-weight="400" font-size="24" transform="translate(195.05 276)">Device</text><path d="M425 241.667C425 234.119 431.119 228 438.667 228L551.333 228C558.881 228 565 234.119 565 241.667L565 296.333C565 303.881 558.881 310 551.333 310L438.667 310C431.119 310 425 303.881 425 296.333Z" stroke="#000000" stroke-width="2" stroke-miterlimit="8" fill="none" fill-rule="evenodd"/><text font-family="Calibri,Calibri_MSFontService,sans-serif" font-weight="400" font-size="24" transform="translate(473.586 276)">VNA</text><path d="M298 269 424.629 269" stroke="#000000" stroke-width="2" stroke-miterlimit="8" fill="none" fill-rule="evenodd"/><text font-family="Calibri,Calibri_MSFontService,sans-serif" font-weight="400" font-size="15" transform="translate(300.43 263)">RX/TX port</text></g></svg>