<svg width="420" height="258" xmlns="http://www.w3.org/2000/svg" xmlns:xlink="http://www.w3.org/1999/xlink" overflow="hidden"><g transform="translate(-130 -259)"><path d="M139 310.667C139 303.119 145.119 297 152.667 297L266.333 297C273.881 297 280 303.119 280 310.667L280 365.333C280 372.881 273.881 379 266.333 379L152.667 379C145.119 379 139 372.881 139 365.333Z" stroke="#000000" stroke-width="2" stroke-miterlimit="8" fill="none" fill-rule="evenodd"/><text font-family="Calibri,Calibri_MSFontService,sans-serif" font-weight="400" font-size="24" transform="translate(180.96 331)">Signal</text><text font-family="Calibri,Calibri_MSFontService,sans-serif" font-weight="400" font-size="24" transform="translate(159.847 360)">Generator</text><path d="M401 306.667C401 299.119 407.119 293 414.667 293L528.333 293C535.881 293 542 299.119 542 306.667L542 361.333C542 368.881 535.881 375 528.333 375L414.667 375C407.119 375 401 368.881 401 361.333Z" stroke="#000000" stroke-width="2" stroke-miterlimit="8" fill="none" fill-rule="evenodd"/><text font-family="Calibri,Calibri_MSFontService,sans-serif" font-weight="400" font-size="24" transform="translate(438.739 342)">Device</text><path d="M280 338 355.354 338" stroke="#000000" stroke-width="2" stroke-miterlimit="8" fill="none" fill-rule="evenodd"/><text font-family="Calibri,Calibri_MSFontService,sans-serif" font-weight="400" font-size="15" transform="translate(403.384 341)">RX</text><rect x="355.5" y="324.5" width="46" height="28" stroke="#2B4719" stroke-width="1.33333" stroke-miterlimit="8" fill="#70AD47"/><text fill="#FFFFFF" font-family="Calibri,Calibri_MSFontService,sans-serif" font-weight="400" font-size="16" transform="translate(365.62 343)">6dB</text><path d="M398 445.667C398 438.119 404.119 432 411.667 432L525.333 432C532.881 432 539 438.119 539 445.667L539 500.333C539 507.881 532.881 514 525.333 514L411.667 514C404.119 514 398 507.881 398 500.333Z" stroke="#000000" stroke-width="2" stroke-miterlimit="8" fill="none" fill-rule="evenodd"/><text font-family="Calibri,Calibri_MSFontService,sans-serif" font-weight="400" font-size="24" transform="translate(421.394 466)">Spectrum</text><text font-family="Calibri,Calibri_MSFontService,sans-serif" font-weight="400" font-size="24" transform="translate(426.507 495)">Analyser</text><path d="M141 441.667C141 434.119 147.119 428 154.667 428L268.333 428C275.881 428 282 434.119 282 441.667L282 496.333C282 503.881 275.881 510 268.333 510L154.667 510C147.119 510 141 503.881 141 496.333Z" stroke="#000000" stroke-width="2" stroke-miterlimit="8" fill="none" fill-rule="evenodd"/><text font-family="Calibri,Calibri_MSFontService,sans-serif" font-weight="400" font-size="24" transform="translate(179.101 477)">Device</text><path d="M0 0 70.4 0.000104987" stroke="#000000" stroke-width="2" stroke-miterlimit="8" fill="none" fill-rule="evenodd" transform="matrix(-1 0 0 1 398.4 473)"/><text font-family="Calibri,Calibri_MSFontService,sans-serif" font-weight="400" font-size="15" transform="translate(261.414 476)">T</text><text font-family="Calibri,Calibri_MSFontService,sans-serif" font-weight="400" font-size="15" transform="translate(268.581 476)">X</text><rect x="282.5" y="459.5" width="46" height="28" stroke="#2B4719" stroke-width="1.33333" stroke-miterlimit="8" fill="#70AD47"/><text fill="#FFFFFF" font-family="Calibri,Calibri_MSFontService,sans-serif" font-weight="400" font-size="16" transform="translate(292.267 478)">6dB</text><text font-family="Calibri,Calibri_MSFontService,sans-serif" font-style="italic" font-weight="400" font-size="21" transform="translate(471.884 286)">Receive</text><text font-family="Calibri,Calibri_MSFontService,sans-serif" font-style="italic" font-weight="400" font-size="21" transform="translate(143.47 423)">Transmit</text></g></svg>