<svg width="406" height="91" xmlns="http://www.w3.org/2000/svg" xmlns:xlink="http://www.w3.org/1999/xlink" overflow="hidden"><g transform="translate(-161 -465)"><path d="M163 484.667C163 477.119 169.119 471 176.667 471L290.333 471C297.881 471 304 477.119 304 484.667L304 539.333C304 546.881 297.881 553 290.333 553L176.667 553C169.119 553 163 546.881 163 539.333Z" stroke="#000000" stroke-width="2" stroke-miterlimit="8" fill="none" fill-rule="evenodd"/><text font-family="Calibri,Calibri_MSFontService,sans-serif" font-weight="400" font-size="24" transform="translate(186.446 505)">Spectrum</text><text font-family="Calibri,Calibri_MSFontService,sans-serif" font-weight="400" font-size="24" transform="translate(191.56 534)">Analyser</text><path d="M425 480.667C425 473.119 431.119 467 438.667 467L551.333 467C558.881 467 565 473.119 565 480.667L565 535.333C565 542.881 558.881 549 551.333 549L438.667 549C431.119 549 425 542.881 425 535.333Z" stroke="#000000" stroke-width="2" stroke-miterlimit="8" fill="none" fill-rule="evenodd"/><text font-family="Calibri,Calibri_MSFontService,sans-serif" font-weight="400" font-size="24" transform="translate(462.479 515)">Device</text><path d="M304 512 379.354 512" stroke="#000000" stroke-width="2" stroke-miterlimit="8" fill="none" fill-rule="evenodd"/><text font-family="Calibri,Calibri_MSFontService,sans-serif" font-weight="400" font-size="15" transform="translate(427.123 515)">RX</text><rect x="379.5" y="498.5" width="46" height="27" stroke="#2B4719" stroke-width="1.33333" stroke-miterlimit="8" fill="#70AD47"/><text fill="#FFFFFF" font-family="Calibri,Calibri_MSFontService,sans-serif" font-weight="400" font-size="16" transform="translate(389.359 517)">6dB</text></g></svg>