<svg width="382" height="172" xmlns="http://www.w3.org/2000/svg" xmlns:xlink="http://www.w3.org/1999/xlink" overflow="hidden"><g transform="translate(-665 -426)"><path d="M666 451.501C666 438.522 676.522 428 689.501 428L783.499 428C796.478 428 807 438.522 807 451.501L807 572.499C807 585.478 796.478 596 783.499 596L689.501 596C676.522 596 666 585.478 666 572.499Z" stroke="#000000" stroke-width="2" stroke-miterlimit="8" fill="none" fill-rule="evenodd"/><text font-family="Calibri,Calibri_MSFontService,sans-serif" font-weight="400" font-size="24" transform="translate(704.101 520)">Device</text><text font-family="Calibri,Calibri_MSFontService,sans-serif" font-weight="400" font-size="15" transform="translate(786.414 476)">R</text><text font-family="Calibri,Calibri_MSFontService,sans-serif" font-weight="400" font-size="15" transform="translate(794.414 476)">X</text><rect x="807.5" y="459.5" width="46" height="28" stroke="#2B4719" stroke-width="1.33333" stroke-miterlimit="8" fill="#70AD47"/><text fill="#FFFFFF" font-family="Calibri,Calibri_MSFontService,sans-serif" font-weight="400" font-size="16" transform="translate(817.267 478)">6dB</text><path d="M905 444.834C905 437.194 911.193 431 918.834 431L1032.17 431C1039.81 431 1046 437.194 1046 444.834L1046 500.166C1046 507.806 1039.81 514 1032.17 514L918.834 514C911.193 514 905 507.806 905 500.166Z" stroke="#000000" stroke-width="2" stroke-miterlimit="8" fill="none" fill-rule="evenodd"/><text font-family="Calibri,Calibri_MSFontService,sans-serif" font-weight="400" font-size="24" transform="translate(928.29 466)">Spectrum</text><text font-family="Calibri,Calibri_MSFontService,sans-serif" font-weight="400" font-size="24" transform="translate(933.404 495)">Analyser</text><path d="M0 0 52.2967 0.229186" stroke="#000000" stroke-width="2" stroke-miterlimit="8" fill="none" fill-rule="evenodd" transform="matrix(-1 0 0 1 905.297 473)"/><text font-family="Calibri,Calibri_MSFontService,sans-serif" font-weight="400" font-size="15" transform="translate(786.414 558)">T</text><text font-family="Calibri,Calibri_MSFontService,sans-serif" font-weight="400" font-size="15" transform="translate(793.581 558)">X</text><rect x="807.5" y="541.5" width="46" height="28" stroke="#2B4719" stroke-width="1.33333" stroke-miterlimit="8" fill="#2E75B6"/><text fill="#FFFFFF" font-family="Calibri,Calibri_MSFontService,sans-serif" font-weight="400" font-size="15" transform="translate(817.517 560)">50</text><text fill="#FFFFFF" font-family="Calibri,Calibri_MSFontService,sans-serif" font-weight="400" font-size="15" transform="translate(832.517 560)">Ω</text></g></svg>